<?xml version="1.0" standalone="no"?>
<!DOCTYPE svg PUBLIC "-//W3C//DTD SVG 20010904//EN"
 "http://www.w3.org/TR/2001/REC-SVG-20010904/DTD/svg10.dtd">
<svg version="1.0" xmlns="http://www.w3.org/2000/svg"
 width="96.000000pt" height="182.000000pt" viewBox="0 0 96.000000 182.000000"
 preserveAspectRatio="xMidYMid meet">

<g transform="translate(0.000000,182.000000) scale(0.100000,-0.100000)"
fill="#000000" stroke="none">
<path d="M410 1734 c-110 -30 -199 -105 -253 -214 -30 -60 -32 -72 -32 -170 0
-94 3 -111 27 -160 78 -159 209 -237 383 -228 110 6 191 44 268 128 75 81 100
147 101 265 1 81 -2 97 -30 155 -38 81 -83 133 -151 177 -93 59 -204 76 -313
47z m97 -134 c89 -54 83 -199 -10 -243 -154 -73 -279 120 -151 233 28 24 44
30 82 30 29 0 59 -8 79 -20z"/>
<path d="M115 80 c-3 -5 -1 -10 4 -10 6 0 11 5 11 10 0 6 -2 10 -4 10 -3 0 -8
-4 -11 -10z"/>
</g>
</svg>
